<svg width="19" height="19" viewBox="0 0 19 19" fill="none" xmlns="http://www.w3.org/2000/svg">
<g clip-path="url(#clip0_3_112)">
<path d="M8.04167 13.875L15.3854 6.53125L13.9271 5.07292L8.04167 10.9583L5.07292 7.98958L3.61458 9.44792L8.04167 13.875ZM2.20833 18.875C1.63542 18.875 1.14479 18.6712 0.736458 18.2635C0.328819 17.8552 0.125 17.3646 0.125 16.7917V2.20833C0.125 1.63542 0.328819 1.14479 0.736458 0.736458C1.14479 0.328819 1.63542 0.125 2.20833 0.125H16.7917C17.3646 0.125 17.8552 0.328819 18.2635 0.736458C18.6712 1.14479 18.875 1.63542 18.875 2.20833V16.7917C18.875 17.3646 18.6712 17.8552 18.2635 18.2635C17.8552 18.6712 17.3646 18.875 16.7917 18.875H2.20833Z" fill="#4FC95B"/>
</g>
<defs>
<clipPath id="clip0_3_112">
<rect width="19" height="19" fill="white"/>
</clipPath>
</defs>
</svg>
