<svg width="20" height="20" viewBox="0 0 20 20" fill="none" xmlns="http://www.w3.org/2000/svg">
<path d="M9.23591 17.9056L9.23449 17.9042C6.64038 15.4686 4.56609 13.5159 3.12866 11.695C1.70317 9.8892 1 8.32905 1 6.69482C1 4.01577 3.00364 2 5.5 2C6.92452 2 8.31844 2.69201 9.2301 3.79185L10 4.72066L10.7699 3.79185C11.6816 2.69201 13.0755 2 14.5 2C16.9964 2 19 4.01577 19 6.69482C19 8.32905 18.2968 9.8892 16.8713 11.695C15.4339 13.5159 13.3596 15.4686 10.7655 17.9042L10.7641 17.9056L10 18.6258L9.23591 17.9056Z" stroke="#DE5D5D" stroke-width="2"/>
</svg>
