<svg width="32" height="32" viewBox="0 0 32 32" fill="none" xmlns="http://www.w3.org/2000/svg">
<path opacity="0.5" d="M16.0003 2.66666C13.3632 2.66666 10.7854 3.44864 8.59273 4.91373C6.40007 6.37881 4.69111 8.4612 3.68194 10.8975C2.67277 13.3339 2.40872 16.0148 2.92319 18.6012C3.43766 21.1876 4.70754 23.5634 6.57224 25.4281C8.43694 27.2928 10.8127 28.5627 13.3991 29.0771C15.9855 29.5916 18.6664 29.3276 21.1028 28.3184C23.5391 27.3092 25.6215 25.6002 27.0866 23.4076C28.5517 21.2149 29.3337 18.6371 29.3337 16C29.3337 14.249 28.9888 12.5152 28.3187 10.8975C27.6487 9.27987 26.6665 7.81001 25.4284 6.5719C24.1903 5.33379 22.7205 4.35166 21.1028 3.6816C19.4851 3.01153 17.7513 2.66666 16.0003 2.66666V2.66666ZM16.0003 26.6667C13.8907 26.6667 11.8284 26.0411 10.0742 24.869C8.32012 23.6969 6.95295 22.031 6.14562 20.0819C5.33828 18.1329 5.12705 15.9882 5.53862 13.919C5.9502 11.8499 6.9661 9.94928 8.45786 8.45752C9.94962 6.96576 11.8502 5.94986 13.9194 5.53828C15.9885 5.1267 18.1332 5.33794 20.0823 6.14528C22.0314 6.95261 23.6973 8.31978 24.8693 10.0739C26.0414 11.828 26.667 13.8903 26.667 16C26.667 18.829 25.5432 21.5421 23.5428 23.5425C21.5424 25.5429 18.8293 26.6667 16.0003 26.6667V26.6667Z" fill="#F8F8F8"/>
<path d="M26.6667 16H29.3333C29.3333 14.249 28.9885 12.5152 28.3184 10.8975C27.6483 9.27987 26.6662 7.81001 25.4281 6.5719C24.19 5.33379 22.7201 4.35166 21.1024 3.6816C19.4848 3.01153 17.751 2.66666 16 2.66666V5.33332C18.829 5.33332 21.5421 6.45713 23.5425 8.45752C25.5429 10.4579 26.6667 13.171 26.6667 16Z" fill="#F8F8F8"/>
</svg>
